<svg xmlns:svg="http://www.w3.org/2000/svg" xmlns="http://www.w3.org/2000/svg" version="1.1" viewBox="0 0 192 128" x="0px" y="0px"><path style="color:#3498DB;display:inline;overflow:visible;visibility:visible;opacity:1;fill:#000000;fill-opacity:1;fill-rule:nonzero;stroke:none;stroke-width:2;stroke-linecap:square;stroke-linejoin:miter;stroke-miterlimit:4;stroke-dasharray:none;stroke-dashoffset:0;stroke-opacity:1;marker:none;enable-background:accumulate" d="M 91,57.5 A 32.5,32.5 0 0 1 58.5,90 32.5,32.5 0 0 1 26,57.5 32.5,32.5 0 0 1 58.5,25 32.5,32.5 0 0 1 91,57.5 Z M 169,48 A 48,48 0 0 1 121,96 48,48 0 0 1 73,48 48,48 0 0 1 121,0 48,48 0 0 1 169,48 Z M 32,128 C 14.32689,128 0,113.67311 0,96 0,78.32689 14.32689,64 32,64 l 128,0 c 17.67311,0 32,14.32689 32,32 0,17.67311 -14.32689,32 -32,32 z"></path></svg>
