<?xml version="1.0" encoding="UTF-8" standalone="no"?>
<svg width="37px" height="37px" viewBox="0 0 37 37" version="1.1" xmlns="http://www.w3.org/2000/svg" xmlns:xlink="http://www.w3.org/1999/xlink">
    <!-- Generator: Sketch 3.7 (28169) - http://www.bohemiancoding.com/sketch -->
    <title>noun_110888_cc</title>
    <desc>Created with Sketch.</desc>
    <defs></defs>
    <g id="Page-1" stroke="none" stroke-width="1" fill="none" fill-rule="evenodd">
        <g id="noun_110888_cc" fill="#F5C50D">
            <g id="Group">
                <path d="M18.347,27.393 C13.359,27.393 9.301,23.335 9.301,18.347 C9.301,13.359 13.359,9.301 18.347,9.301 C23.335,9.301 27.393,13.359 27.393,18.347 C27.393,23.335 23.335,27.393 18.347,27.393 L18.347,27.393 Z M18.347,11.949 C14.82,11.949 11.949,14.819 11.949,18.347 C11.949,21.875 14.819,24.745 18.347,24.745 C21.875,24.745 24.745,21.875 24.745,18.347 C24.745,14.819 21.874,11.949 18.347,11.949 L18.347,11.949 Z M19.671,34.821 L19.671,30.872 C19.671,30.141 19.078,29.548 18.347,29.548 C17.616,29.548 17.023,30.141 17.023,30.872 L17.023,34.821 C17.023,35.552 17.616,36.145 18.347,36.145 C19.078,36.145 19.671,35.553 19.671,34.821 L19.671,34.821 Z M19.671,5.821 L19.671,1.872 C19.671,1.141 19.078,0.548 18.347,0.548 C17.616,0.548 17.023,1.141 17.023,1.872 L17.023,5.821 C17.023,6.552 17.616,7.145 18.347,7.145 C19.078,7.145 19.671,6.552 19.671,5.821 L19.671,5.821 Z M7.145,18.347 C7.145,17.615 6.552,17.023 5.821,17.023 L1.872,17.023 C1.141,17.023 0.548,17.616 0.548,18.347 C0.548,19.078 1.141,19.671 1.872,19.671 L5.821,19.671 C6.552,19.671 7.145,19.078 7.145,18.347 L7.145,18.347 Z M36.145,18.347 C36.145,17.615 35.552,17.023 34.821,17.023 L30.872,17.023 C30.141,17.023 29.548,17.616 29.548,18.347 C29.548,19.078 30.141,19.671 30.872,19.671 L34.821,19.671 C35.553,19.671 36.145,19.078 36.145,18.347 L36.145,18.347 Z M10.426,10.426 C10.943,9.909 10.943,9.071 10.426,8.554 L7.634,5.762 C7.117,5.245 6.278,5.245 5.761,5.762 C5.244,6.279 5.244,7.117 5.761,7.635 L8.553,10.427 C8.811,10.686 9.15,10.815 9.489,10.815 C9.829,10.814 10.168,10.684 10.426,10.426 L10.426,10.426 Z M30.932,30.932 C31.449,30.415 31.449,29.577 30.932,29.06 L28.14,26.268 C27.623,25.751 26.784,25.751 26.268,26.268 C25.751,26.785 25.751,27.623 26.268,28.14 L29.06,30.932 C29.318,31.191 29.657,31.32 29.996,31.32 C30.335,31.32 30.674,31.191 30.932,30.932 L30.932,30.932 Z M28.14,10.426 L30.932,7.634 C31.449,7.117 31.449,6.279 30.932,5.761 C30.415,5.244 29.576,5.244 29.059,5.761 L26.267,8.553 C25.75,9.07 25.75,9.908 26.267,10.425 C26.525,10.684 26.864,10.813 27.203,10.813 C27.542,10.814 27.881,10.684 28.14,10.426 L28.14,10.426 Z M7.634,30.932 L10.426,28.14 C10.943,27.623 10.943,26.785 10.426,26.268 C9.909,25.751 9.07,25.751 8.554,26.268 L5.762,29.06 C5.245,29.577 5.245,30.415 5.762,30.932 C6.02,31.191 6.359,31.32 6.698,31.32 C7.036,31.32 7.375,31.191 7.634,30.932 L7.634,30.932 Z" id="Shape"></path>
            </g>
        </g>
    </g>
</svg>